<?xml version="1.0" standalone="no"?><!DOCTYPE svg PUBLIC "-//W3C//DTD SVG 1.1//EN" "http://www.w3.org/Graphics/SVG/1.1/DTD/svg11.dtd"><svg t="1768990350172" class="icon" viewBox="0 0 1024 1024" version="1.1" xmlns="http://www.w3.org/2000/svg" p-id="6565" xmlns:xlink="http://www.w3.org/1999/xlink" width="200" height="200"><path d="M296.008743 276.983607c-10.631694 0-19.584699 8.953005-19.584699 19.584699v30.216393c0 21.822951-7.274317 42.526776-21.263388 59.313662-9.512568 11.75082-14.548634 26.299454-14.548634 41.40765v483.462295c0 11.75082 5.036066 22.942077 13.429508 30.775956 49.24153 45.884153 131.497268 68.82623 246.767213 68.82623s197.525683-23.501639 246.767213-68.82623c8.393443-7.83388 13.429508-19.025137 13.429508-30.775956V427.506011c0-15.108197-5.595628-30.216393-15.667759-41.40765-14.548634-16.786885-22.382514-38.050273-22.382514-59.873224V296.568306c0-10.631694-8.953005-19.584699-19.584699-19.584699H296.008743z" fill="#E9B7D4" p-id="6566"></path><path d="M500.808743 1024c-118.06776 0-204.240437-24.620765-256.279781-72.743169-11.191257-10.631694-17.906011-25.739891-17.906011-40.848088V426.946448c0-18.465574 6.155191-36.371585 17.906011-50.360656s17.906011-31.895082 17.906011-50.360655V296.568306c0-18.465574 15.108197-33.57377 33.57377-33.57377h407.361749c18.465574 0 33.57377 15.108197 33.57377 33.57377v29.656831c0 18.465574 6.714754 36.371585 19.025137 50.920218 12.310383 13.989071 19.025137 31.895082 19.025137 50.920219v482.343169c0 15.66776-6.714754 30.216393-17.906011 40.848088-52.039344 48.122404-138.212022 72.743169-256.279782 72.743169zM296.008743 290.972678c-3.357377 0-5.595628 2.238251-5.595628 5.595628v30.216393c0 24.620765-8.393443 48.681967-24.061202 68.266667C258.518033 403.444809 254.601093 415.195628 254.601093 426.946448v483.462295c0 7.83388 3.357377 15.108197 8.953005 20.703825C309.997814 974.198907 390.015301 996.021858 500.808743 996.021858c110.793443 0 190.810929-21.822951 237.254645-65.468853 5.595628-5.036066 8.953005-12.869945 8.953005-20.703825V427.506011c0-11.75082-4.476503-23.501639-12.310382-32.454645-16.786885-19.025137-25.739891-43.645902-25.739891-68.826229V296.568306c0-3.357377-2.238251-5.595628-5.595628-5.595628H296.008743z" fill="#424242" p-id="6567"></path><path d="M657.486339 998.819672c-1.678689 0-3.357377-0.559563-5.036066-1.119126-7.274317-2.797814-10.631694-11.191257-7.83388-18.465573 92.327869-224.944262 98.48306-289.853552-50.920218-411.278689-71.064481-56.515847-107.436066-107.995628-111.912568-157.237158-2.797814-30.216393 7.274317-58.194536 29.097267-83.934427 5.036066-5.595628 13.989071-6.714754 19.5847-1.678688 5.595628 5.036066 6.714754 13.989071 1.678688 19.584699-17.346448 20.144262-24.620765 40.848087-22.942076 63.790164 3.357377 40.288525 37.49071 86.73224 101.280874 138.212022 167.30929 135.414208 151.64153 219.348634 59.313661 443.733334-1.678689 5.036066-7.274317 8.393443-12.310382 8.393442zM758.20765 674.273224c-6.714754 0-12.869945-5.036066-13.989071-11.75082-2.797814-16.227322-3.91694-31.335519-5.595628-45.884153-5.036066-49.801093-8.953005-93.446995-58.754099-138.771584-34.692896-31.895082-40.288525-88.970492-15.667759-168.428416 2.238251-7.274317 10.072131-11.75082 17.346448-9.512568 7.274317 2.238251 11.75082 10.072131 9.512568 17.346448-21.263388 68.266667-18.465574 115.269945 7.83388 139.331148 57.634973 53.15847 62.671038 103.519126 67.707104 156.677595 1.119126 14.548634 2.797814 29.097268 5.036065 44.205465 1.119126 7.83388-3.91694 14.548634-11.750819 16.227322 0 0.559563-1.119126 0.559563-1.678689 0.559563z" fill="#F4849A" p-id="6568"></path><path d="M500.808743 428.065574c-4.476503 0-8.953005-2.238251-11.191257-6.155191-4.476503-6.155191-2.797814-15.108197 3.357377-19.5847l95.125683-67.147541c6.155191-4.476503 15.108197-2.797814 19.5847 3.357377 4.476503 6.155191 2.797814 15.108197-3.357377 19.5847l-95.125683 67.147541c-2.797814 2.238251-5.595628 2.797814-8.393443 2.797814zM523.191257 476.187978c-3.91694 0-7.83388-1.678689-10.631694-5.036065-5.036066-6.155191-4.476503-14.548634 1.678688-19.5847l146.045902-124.782514c5.595628-5.036066 14.548634-4.476503 19.584699 1.678689 5.036066 6.155191 4.476503 14.548634-1.678688 19.584699L532.144262 472.830601c-2.238251 2.238251-5.595628 3.357377-8.953005 3.357377zM551.169399 512c-3.91694 0-7.83388-1.678689-10.631694-4.476503-5.036066-5.595628-4.476503-14.548634 1.119126-19.584699l111.912568-100.721312c5.595628-5.036066 14.548634-4.476503 19.584699 1.119126 5.036066 5.595628 4.476503 14.548634-1.119125 19.584699l-111.912569 100.721312c-2.238251 2.238251-5.595628 3.357377-8.953005 3.357377zM590.338798 545.57377c-4.476503 0-8.393443-1.678689-11.191257-5.595628-4.476503-6.155191-3.357377-15.108197 2.797814-19.584699l95.125683-72.74317c6.155191-4.476503 15.108197-3.357377 19.5847 2.797814 4.476503 6.155191 3.357377 15.108197-2.797815 19.5847l-95.125683 72.743169c-2.238251 1.678689-5.595628 2.797814-8.393442 2.797814zM626.710383 582.504918c-3.91694 0-8.393443-1.678689-11.191257-5.595628-4.476503-6.155191-3.357377-15.108197 2.797814-19.5847L708.96612 486.819672c6.155191-4.476503 15.108197-3.357377 19.5847 2.797814 4.476503 6.155191 3.357377 15.108197-2.797815 19.5847L635.103825 579.147541c-2.797814 2.238251-5.595628 3.357377-8.393442 3.357377zM654.128962 609.923497c-3.91694 0-7.83388-1.678689-10.631694-5.036065-5.036066-5.595628-4.476503-14.548634 1.678688-19.5847l74.421858-64.349727c5.595628-5.036066 14.548634-4.476503 19.5847 1.678689 5.036066 5.595628 4.476503 14.548634-1.678689 19.584699L663.081967 606.56612c-2.238251 2.238251-5.595628 3.357377-8.953005 3.357377zM688.262295 649.092896c-3.91694 0-7.83388-1.678689-10.631694-5.036065-5.036066-6.155191-4.476503-14.548634 1.678689-19.5847l63.230601-53.15847c6.155191-5.036066 14.548634-4.476503 19.584699 1.678689 5.036066 6.155191 4.476503 14.548634-1.678688 19.584699l-63.230601 53.15847c-2.797814 2.797814-6.155191 3.357377-8.953006 3.357377zM716.240437 688.821858c-3.91694 0-7.83388-1.678689-10.631694-4.476503-5.036066-5.595628-5.036066-14.548634 1.119126-19.584699l46.443716-42.526776c5.595628-5.036066 14.548634-5.036066 19.584699 1.119125 5.036066 5.595628 5.036066 14.548634-1.119126 19.5847l-46.443715 42.526776c-2.238251 1.678689-5.595628 3.357377-8.953006 3.357377zM727.431694 744.218579c-3.357377 0-7.274317-1.119126-10.072131-3.91694-5.595628-5.595628-5.595628-14.548634 0-19.584699l33.57377-33.573771c5.595628-5.595628 14.548634-5.595628 19.5847 0s5.595628 14.548634 0 19.5847l-33.573771 33.57377c-2.238251 2.797814-6.155191 3.91694-9.512568 3.91694zM727.431694 800.174863c-3.357377 0-7.274317-1.119126-10.072131-3.91694-5.595628-5.595628-5.595628-14.548634 0-19.584699l33.57377-33.57377c5.595628-5.595628 14.548634-5.595628 19.5847 0s5.595628 14.548634 0 19.584699l-33.573771 33.57377c-2.238251 2.797814-6.155191 3.91694-9.512568 3.91694zM716.240437 856.131148c-3.91694 0-7.83388-1.678689-10.631694-4.476503-5.036066-5.595628-4.476503-14.548634 1.119126-19.5847l46.443716-41.967213c5.595628-5.036066 14.548634-4.476503 19.584699 1.119126 5.036066 5.595628 4.476503 14.548634-1.119126 19.584699l-46.443715 41.967213c-2.797814 2.238251-6.155191 3.357377-8.953006 3.357378zM688.262295 940.065574c-3.91694 0-7.83388-1.678689-10.631694-5.036066-5.036066-6.155191-4.476503-14.548634 1.678689-19.584699l63.230601-53.15847c6.155191-5.036066 14.548634-4.476503 19.584699 1.678688 5.036066 6.155191 4.476503 14.548634-1.678688 19.5847l-63.230601 53.15847c-2.797814 2.797814-6.155191 3.357377-8.953006 3.357377z" fill="#F4849A" p-id="6569"></path><path d="M500.808743 1024c-118.06776 0-204.240437-24.620765-256.279781-72.743169-11.191257-10.631694-17.906011-25.739891-17.906011-40.848088V426.946448c0-18.465574 6.155191-36.371585 17.906011-50.360656s17.906011-31.895082 17.906011-50.360655V296.568306c0-18.465574 15.108197-33.57377 33.57377-33.57377h407.361749c18.465574 0 33.57377 15.108197 33.57377 33.57377v29.656831c0 18.465574 6.714754 36.371585 19.025137 50.920218 12.310383 13.989071 19.025137 31.895082 19.025137 50.920219v482.343169c0 15.66776-6.714754 30.216393-17.906011 40.848088-52.039344 48.122404-138.212022 72.743169-256.279782 72.743169zM296.008743 290.972678c-3.357377 0-5.595628 2.238251-5.595628 5.595628v30.216393c0 24.620765-8.393443 48.681967-24.061202 68.266667C258.518033 403.444809 254.601093 415.195628 254.601093 426.946448v483.462295c0 7.83388 3.357377 15.108197 8.953005 20.703825C309.997814 974.198907 390.015301 996.021858 500.808743 996.021858c110.793443 0 190.810929-21.822951 237.254645-65.468853 5.595628-5.036066 8.953005-12.869945 8.953005-20.703825V427.506011c0-11.75082-4.476503-23.501639-12.310382-32.454645-16.786885-19.025137-25.739891-43.645902-25.739891-68.826229V296.568306c0-3.357377-2.238251-5.595628-5.595628-5.595628H296.008743z" fill="#424242" p-id="6570"></path><path d="M680.428415 766.601093h-40.848087c-5.595628 0-10.631694-5.036066-10.631694-11.191257s4.476503-11.191257 10.631694-11.191257h40.848087c5.595628 0 10.631694 5.036066 10.631694 11.191257s-4.476503 11.191257-10.631694 11.191257z" fill="#FF6376" p-id="6571"></path><path d="M484.021858 744.218579c-18.465574 0-33.57377-15.108197-33.573771-34.133333 0-5.595628 4.476503-10.631694 10.072132-10.631694s10.072131 4.476503 10.072131 10.631694c0 7.274317 5.595628 13.429508 12.869945 13.429508 7.274317 0 12.869945-6.155191 12.869945-13.429508 0-5.595628 4.476503-10.631694 10.072132-10.631694s10.072131 4.476503 10.072131 10.631694c1.119126 19.025137-13.989071 34.133333-32.454645 34.133333z" fill="#202021" p-id="6572"></path><path d="M523.191257 744.218579c-18.465574 0-33.57377-15.108197-33.573771-34.133333 0-5.595628 4.476503-10.631694 10.072131-10.631694s10.072131 4.476503 10.072132 10.631694c0 7.274317 5.595628 13.429508 12.869945 13.429508 7.274317 0 12.869945-6.155191 12.869945-13.429508 0-5.595628 4.476503-10.631694 10.072131-10.631694s10.072131 4.476503 10.072132 10.631694c1.119126 19.025137-13.989071 34.133333-32.454645 34.133333zM675.39235 710.644809c-5.595628 0-10.072131-4.476503-10.072131-10.072131 0-4.476503-3.357377-8.393443-7.83388-8.393443-4.476503 0-7.83388 3.91694-7.83388 8.393443 0 5.595628-4.476503 10.072131-10.072131 10.072131s-10.072131-4.476503-10.072131-10.072131c0-15.66776 12.310383-29.097268 27.978142-29.097268s27.978142 12.869945 27.978142 29.097268c0 5.595628-4.476503 10.072131-10.072131 10.072131z" fill="#202021" p-id="6573"></path><path d="M378.264481 766.601093h-40.848088c-5.595628 0-10.631694-5.036066-10.631694-11.191257s4.476503-11.191257 10.631694-11.191257h40.848088c5.595628 0 10.631694 5.036066 10.631694 11.191257s-4.476503 11.191257-10.631694 11.191257z" fill="#FF6376" p-id="6574"></path><path d="M373.228415 710.644809c-5.595628 0-10.072131-4.476503-10.072131-10.072131 0-4.476503-3.357377-8.393443-7.83388-8.393443-4.476503 0-7.83388 3.91694-7.833879 8.393443 0 5.595628-4.476503 10.072131-10.072132 10.072131s-10.072131-4.476503-10.072131-10.072131c0-15.66776 12.310383-29.097268 27.978142-29.097268s27.978142 12.869945 27.978142 29.097268c0 5.595628-4.476503 10.072131-10.072131 10.072131z" fill="#202021" p-id="6575"></path><path d="M276.983607 276.983607a218.229508 64.349727 0 1 0 436.459016 0 218.229508 64.349727 0 1 0-436.459016 0Z" fill="#B0F7FF" p-id="6576"></path><path d="M495.213115 355.322404c-115.269945 0-232.218579-26.859016-232.218579-78.338797s116.948634-78.338798 232.218579-78.338798 232.218579 26.859016 232.218579 78.338798-116.948634 78.338798-232.218579 78.338797z m0-128.699453c-132.056831 0-204.240437 33.014208-204.240437 50.360656s72.183607 50.360656 204.240437 50.360655 204.240437-33.014208 204.240437-50.360655-72.183607-50.360656-204.240437-50.360656z" fill="#424242" p-id="6577"></path><path d="M512 265.79235a61.551913 19.584699 0 1 0 123.103825 0 61.551913 19.584699 0 1 0-123.103825 0Z" fill="#D8D8D8" p-id="6578"></path><path d="M573.551913 299.36612c-34.692896 0-75.540984-8.953005-75.540984-33.57377s40.848087-33.57377 75.540984-33.573771 75.540984 8.953005 75.540983 33.573771-40.848087 33.57377-75.540983 33.57377z m-40.848088-33.57377c8.393443 2.797814 22.382514 5.595628 40.848088 5.595628s33.014208-2.797814 40.848087-5.595628c-8.393443-2.797814-22.382514-5.595628-40.848087-5.595629s-33.014208 2.797814-40.848088 5.595629z" fill="#424242" p-id="6579"></path><path d="M770.518033 24.620765c3.91694 3.91694 6.155191 6.714754 7.274317 8.393443 6.155191 10.631694 2.238251 24.620765-8.393443 30.216393-2.797814 1.678689-5.595628 2.797814-8.953005 2.797814-19.584699 2.238251-36.371585 5.036066-50.920219 8.953006-36.931148 9.512568-67.147541 16.786885-76.100546 43.086339-15.66776 47.003279-26.859016 91.768306-34.133334 135.414207-2.238251 13.989071-15.108197 22.942077-28.537705 20.703825l-3.91694-0.559562c-13.989071-2.238251-22.942077-15.108197-20.703825-29.097268 0-0.559563 0-1.119126 0.559563-1.678689l33.573771-140.450273c10.631694-21.822951 19.584699-35.812022 26.859016-41.967213 19.025137-16.227322 43.645902-18.465574 57.634973-23.501639 19.584699-7.274317 47.562842-13.429508 83.934426-19.025137 7.83388-1.678689 16.227322 0.559563 21.822951 6.714754z" fill="#FFFFFF" p-id="6580"></path><path d="M574.671038 288.174863c-2.238251 0-3.91694 0-6.155191-0.559562l-3.91694-0.559563c-21.263388-3.357377-35.812022-23.501639-32.454645-44.765028 0-1.119126 0.559563-1.678689 0.559563-2.797814l34.133333-142.128962 0.559563-1.678688c11.75082-24.061202 21.822951-38.609836 30.775957-46.443716 16.786885-13.989071 35.812022-19.025137 50.360655-22.382514 4.476503-1.119126 8.953005-2.238251 11.75082-3.357377 20.703825-7.274317 48.681967-13.989071 86.172678-19.584699 12.310383-1.678689 25.180328 2.238251 34.133333 11.191257 6.155191 6.155191 8.393443 8.953005 9.512568 11.191257 10.072131 17.346448 3.91694 39.728962-13.429508 49.801092-4.476503 2.797814-9.512568 3.91694-14.548634 4.476503-18.465574 2.238251-35.252459 5.036066-48.681967 8.393443l-3.91694 1.119125c-35.812022 9.512568-56.515847 15.66776-62.111475 33.014208-15.66776 45.884153-26.859016 90.64918-33.573771 133.175956-3.357377 17.906011-20.144262 31.895082-39.169399 31.895082zM593.136612 106.31694l-33.014208 139.331147v0.559563c-1.119126 6.155191 3.357377 11.75082 8.953006 12.869946l3.91694 0.559562c6.155191 1.119126 11.75082-3.357377 12.869945-9.512568 6.714754-43.645902 18.465574-90.089617 34.692896-137.652459 11.191257-32.454645 45.32459-41.40765 81.696175-50.920218l3.91694-1.119126c15.108197-3.91694 33.014208-6.714754 53.15847-8.953006 1.119126 0 2.238251-0.559563 3.357377-1.119125 3.91694-2.238251 5.595628-7.274317 2.797814-11.191257 0 0-1.119126-1.678689-5.036065-5.036066-2.797814-2.797814-6.155191-3.91694-9.512569-3.357377-35.252459 5.595628-62.671038 11.75082-81.136612 18.465574-4.476503 1.678689-9.512568 2.797814-14.548634 3.91694-12.869945 3.357377-27.418579 6.714754-39.169398 16.786885-2.797814 3.357377-10.072131 11.75082-22.942077 36.371585z" fill="#424242" p-id="6581"></path><path d="M620.303388 66.86776l18.07388-21.358514 36.310033 30.72-18.07388 21.358514zM572.337661 135.34706l13.882754-24.285027 39.348459 22.483235-13.877158 24.285027zM583.534514 96.177661l13.877158-24.285027 39.354055 22.483235-13.877159 24.285027z" fill="#424242" p-id="6582"></path><path d="M276.983607 528.786885c-7.83388 0-13.989071-6.155191-13.989071-13.989071v-54.837158c0-34.133333 11.191257-60.99235 33.014207-78.898361 6.155191-5.036066 14.548634-3.91694 19.5847 1.678689 5.036066 6.155191 3.91694 14.548634-1.678689 19.584699-15.66776 12.869945-22.942077 31.335519-22.942076 57.07541V514.797814c0 7.83388-6.155191 13.989071-13.989071 13.989071z" fill="#202021" p-id="6583"></path><path d="M332.939891 363.715847m-16.786886 0a16.786885 16.786885 0 1 0 33.573771 0 16.786885 16.786885 0 1 0-33.573771 0Z" fill="#202021" p-id="6584"></path></svg>