<?xml version="1.0" standalone="no"?><!DOCTYPE svg PUBLIC "-//W3C//DTD SVG 1.1//EN" "http://www.w3.org/Graphics/SVG/1.1/DTD/svg11.dtd"><svg t="1769085851029" class="icon" viewBox="0 0 1250 1024" version="1.1" xmlns="http://www.w3.org/2000/svg" p-id="5870" xmlns:xlink="http://www.w3.org/1999/xlink" width="244.140625" height="200"><path d="M847.83602199 381.67156576a212.60472868 122.18953311 60 1 0 211.6384807-122.18953387 212.60472868 122.18953311 60 1 0-211.6384807 122.18953388Z" fill="#543F99" p-id="5871"></path><path d="M783.15677315 128.47156837l251.46251845 435.93582621-573.75954832 331.25253645-251.61430615-435.83463416L783.15677315 128.47156837z" fill="#543F99" p-id="5872"></path><path d="M783.15677315 128.47156837l251.46251845 435.93582621-573.75954832 331.25253645-251.61430615-435.83463416L783.15677315 128.47156837z" fill="#FF9700" p-id="5873"></path><path d="M783.96664338 418.55913414a251.66490257 144.6035966 60 1 0 250.46077673-144.60359738 251.66490257 144.6035966 60 1 0-250.46077673 144.60359737Z" fill="#FF9700" p-id="5874"></path><path d="M852.47340286 118.95950505c-25.29804003-5.05960784-49.02760188-2.22622773-69.11424557 9.36027483L209.24543713 459.82529687l169.39567551 293.45726453 96.89149387 90.76936742s-5.05960784-220.24473687 94.36168916-417.62004483C660.15770276 247.52414517 852.47340286 118.95950505 852.47340286 118.95950505z" fill="#7357FF" p-id="5875"></path><path d="M209.86218212 750.0486122a251.66490257 144.6035966 60 1 0 250.46077672-144.60359659 251.66490257 144.6035966 60 1 0-250.46077672 144.60359659Z" fill="#543F99" p-id="5876"></path><path d="M181.99734584 766.10175598a212.60472868 122.18953311 60 1 0 211.63847991-122.18953311 212.60472868 122.18953311 60 1 0-211.63847991 122.18953311Z" fill="#FF9700" p-id="5877"></path><path d="M355.41751187 868.94520057c-38.14944454 0-100.53441127-36.93513822-147.28518899-117.93946255-53.78363276-93.0967872-49.22998601-182.14588797-11.53590616-204.05399114a46.8519698 46.8519698 0 0 1 23.67896546-5.86914513c38.14944454 0 100.53441127 36.88454258 147.285189 117.88886613 53.78363276 93.14738363 49.22998601 182.14588797 11.53590691 204.05399113A46.8519698 46.8519698 0 0 1 355.41751187 868.94520057z" fill="#FFD400" p-id="5878"></path><path d="M271.12444276 717.10636404V622.54229075c0-9.1578907 7.94358439-12.29484778 16.74730247-5.05960863a190.69662551 190.69662551 0 0 1 35.06308388 41.23580599 216.55122306 216.55122306 0 0 1 22.71763968 48.92640904c3.69351383 11.94067518-1.77086305 22.81883174-12.69961604 22.81883251h-48.06627612a13.76213388 13.76213388 0 0 1-13.76213388-13.35736561z" fill="#543F99" p-id="5879"></path><path d="M706.50371222 754.09209868l328.11557938-189.43172356a1.01192141 1.01192141 0 0 1 0.40476825 0c69.16484121-39.97090325 68.91186143-169.90163661-0.60715315-290.26971179a434.72151991 434.72151991 0 0 0-30.9142046-46.39660512c-49.83713917 55.65568788-146.323864 121.93655333-193.58060206 209.67015573-79.43584538 147.13340052-103.4183878 316.42788474-103.41838781 316.42788474z" fill="#7357FF" p-id="5880"></path><path d="M706.50371222 754.09209868s23.98254164-169.04150368 103.41838782-316.63026887a368.28886674 368.28886674 0 0 1 46.70018131-65.77490436C791.7075107 432.45281761 726.69154799 501.11169851 684.29203289 579.33323835a1562.60933753 1562.60933753 0 0 0-104.93627032 247.92079234" fill="#FFD400" p-id="5881"></path></svg>